<?xml version="1.0" encoding="UTF-8"?>
<svg version="1.1" viewBox="0 0 1440 1400" width="360" height="350" xmlns="http://www.w3.org/2000/svg">
<path transform="translate(1102,197)" d="m0 0h11l4 5 12 36 5 5 10 7 48 32 3 1h19l5-8 9-19 7-11 15-12 11-7h8l6 4 18 20 8 10 1 2v12l-9 55-6 33-3 7-3 3-17-1-22-3-14-12-11-9-5-2-27-4-25-3-11-1-3 36-3 26-5 12-9 19-10 19-24 48-1 8 2 16 6 50 4 33v9l-4 8-12 19-18 27-7 12v34l1 8v11l-4 5-2 1h-24l-21-1h-43l-9 10-11 14-11 12-3 2-50 1-6 12-13 30-18 41-19 44-4 8-5 2-40 4-120 11-269 24-34 3h-9l-3-4-4-14-8-45v-11l9-10 31-31 2-1-1-5-9-14-12-18-8-14-10-21-5-13-1-5 4-5 25-16 15-10 11-7v-17l-1-18-39-3-32-2-3-7-4-25-7-56-6-47-3-21-2-19-3-9-11-12-44-44-2-4 1-7 5-5 14-10 18-13 2-1-1-4-13-17-10-13-14-19-1-2v-9l2-2 51-4 2-1 8-48 4-3 52-5 76-7 180-16 372-33 103-9z" fill="#E4EBF6"/>
<path transform="translate(1102,197)" d="m0 0h11l4 5 12 36 5 5 10 7 48 32 3 1h19l5-8 9-19 7-11 15-12 11-7h8l6 4 18 20 8 10 1 2v12l-9 55-6 33-3 7-3 3-17-1-22-3-14-12-11-9-5-2-27-4-25-3-11-1-3 36-3 26-5 12-9 19-10 19-24 48-1 8 2 16 6 50 4 33v9l-4 8-12 19-18 27-7 12v34l1 8v11l-4 5-2 1h-24l-21-1h-43l-9 10-11 14-11 12-3 2-50 1-6 12-13 30-18 41-19 44-4 8-5 2-40 4-120 11-269 24-34 3h-9l-3-4-4-14-8-45v-11l9-10 31-31 2-1-1-5-9-14-12-18-8-14-10-21-5-13-1-5 4-5 25-16 15-10 11-7v-17l-1-18-39-3-32-2-3-7-4-25-7-56-6-47-3-21-2-19-3-9-11-12-44-44-2-4 1-7 5-5 14-10 18-13 2-1-1-4-13-17-10-13-14-19-1-2v-9l2-2 51-4 2-1 8-48 4-3 52-5 76-7 180-16 372-33 103-9zm-9 13-26 3-24 2-32 3-26 3-31 2-19 2-30 2-17 2-35 3-70 6-31 3-27 2-18 2-34 3-37 3-18 2-29 2-17 2-27 2-18 2-26 2-18 2-26 2-45 4-17 2-24 2-16 2-23 2-21 3-4 1-4 11-2 6-3 28-1 5-38 4-5 4 1 5 10 12 11 14 7 10 3 6-1 6-9 10-18 13-9 6-1 4 7 8 8 7 11 11 7 8 8 8 9 13 4 13 5 29 5 35 5 40 6 43 2 14 1 2 31 3 31 4 8 2 3 31v17l-4 6-8 7-12 8-13 8-11 7-3 3 1 7 14 24 12 20 16 24 2 4v6l-6 9-14 15-11 12-9 9-1 4 1 17 4 29 2 6 5 1 83-6 249-22 38-3 33-3 37-3 13-2 4-6 6-17 9-24 4-8 4-10 7-14 9-19 7-14 9-21 6-4 5-1 43-1 7-3 1-3 4-2 7-11 10-13 6-4 8-2h38l33 3h6l2-1 1-6-1-12v-28l2-10 8-13 6-8 7-11v-2h2l7-11 6-8 3-8-1-9-1-17-4-35-3-27v-30l4-12 16-32 11-21v-3h2v-3h2l4-10 5-9 3-13 3-20 3-43 1-3 11 1 21 2 31 5 18 4 10 4 10 9 8 6 13 4 7 1 7-2 2-8 5-28 4-21 4-23v-9l-7-9-16-16h-5l-9 7-9 11-9 15-10 16-6 5-3 1h-16l-14-5-6-3-16-10-12-9-14-10-11-9-7-8-5-10-6-17-2-7z" fill="#FDFDFD"/>
</svg>
