<?xml version="1.0" standalone="no"?>
<!DOCTYPE svg PUBLIC "-//W3C//DTD SVG 20010904//EN"
 "http://www.w3.org/TR/2001/REC-SVG-20010904/DTD/svg10.dtd">
<svg version="1.0" xmlns="http://www.w3.org/2000/svg"
 width="512.000000pt" height="512.000000pt" viewBox="0 0 512.000000 512.000000"
 preserveAspectRatio="xMidYMid meet">
<metadata>
Created by potrace 1.16, written by Peter Selinger 2001-2019
</metadata>
<g transform="translate(0.000000,512.000000) scale(0.100000,-0.100000)"
fill="#000000" stroke="none">
<path d="M2370 4953 c-83 -11 -262 -54 -345 -83 -507 -179 -899 -582 -1059
-1088 -51 -161 -67 -266 -73 -462 -4 -163 -2 -197 17 -290 95 -465 462 -1078
1093 -1825 226 -267 280 -320 365 -362 75 -37 78 -38 192 -38 114 0 117 1 192
37 84 42 112 69 319 310 617 719 1008 1348 1126 1814 26 102 28 122 27 319 0
179 -3 226 -23 315 -130 607 -539 1073 -1119 1274 -174 60 -282 78 -492 81
-102 2 -201 1 -220 -2z m480 -356 c380 -99 681 -328 873 -662 160 -280 218
-641 143 -910 -63 -230 -228 -553 -443 -870 -236 -346 -745 -969 -825 -1011
-62 -32 -91 -10 -285 216 -574 671 -953 1264 -1064 1665 -31 113 -37 318 -14
457 84 506 438 919 927 1083 163 54 239 65 428 61 135 -4 182 -9 260 -29z"/>
<path d="M2375 4123 c-399 -85 -683 -456 -662 -867 7 -135 26 -213 81 -331
105 -223 306 -390 552 -456 112 -31 315 -31 428 0 243 65 438 224 546 446 61
125 80 201 87 341 12 235 -67 449 -230 621 -121 127 -274 213 -439 247 -96 20
-269 20 -363 -1z m308 -328 c278 -72 451 -358 381 -629 -49 -190 -211 -346
-402 -385 -314 -65 -622 187 -622 511 0 277 235 515 510 517 42 1 102 -6 133
-14z"/>
<path d="M1192 1100 c-55 -34 -72 -73 -72 -171 0 -279 175 -555 435 -684 175
-88 145 -85 1005 -85 860 0 830 -3 1005 85 259 128 435 406 435 684 0 68 -4
93 -20 119 -30 48 -75 72 -140 72 -101 0 -154 -54 -165 -169 -21 -218 -134
-369 -331 -443 l-59 -23 -710 0 c-798 0 -787 -1 -903 75 -138 89 -210 213
-227 391 -11 115 -64 169 -165 169 -37 0 -66 -6 -88 -20z"/>
</g>
</svg>
