<?xml version="1.0" standalone="no"?>
<!DOCTYPE svg PUBLIC "-//W3C//DTD SVG 20010904//EN"
 "http://www.w3.org/TR/2001/REC-SVG-20010904/DTD/svg10.dtd">
<svg version="1.0" xmlns="http://www.w3.org/2000/svg"
 width="512.000000pt" height="512.000000pt" viewBox="0 0 512.000000 512.000000"
 preserveAspectRatio="xMidYMid meet">
<metadata>
Created by potrace 1.16, written by Peter Selinger 2001-2019
</metadata>
<g transform="translate(0.000000,512.000000) scale(0.100000,-0.100000)"
fill="#000000" stroke="none">
<path d="M2360 4465 c-357 -80 -630 -337 -732 -691 -20 -69 -23 -101 -23 -254
0 -153 3 -185 23 -254 97 -334 344 -581 678 -678 69 -20 101 -23 254 -23 153
0 185 3 254 23 334 97 581 344 678 678 20 69 23 101 23 254 0 153 -3 185 -23
254 -96 333 -342 580 -673 677 -97 28 -359 36 -459 14z m295 -320 c212 -23
414 -189 502 -410 26 -65 28 -80 28 -215 0 -140 -1 -148 -32 -225 -59 -146
-183 -280 -319 -345 -91 -44 -167 -61 -274 -61 -107 0 -183 17 -274 61 -136
65 -260 199 -319 345 -31 77 -32 85 -32 225 0 135 2 150 28 215 72 181 205
314 381 380 66 25 185 45 236 39 14 -2 48 -6 75 -9z"/>
<path d="M2255 2234 c-567 -57 -960 -218 -1256 -513 -165 -166 -264 -325 -326
-527 -23 -77 -27 -107 -27 -219 -1 -126 0 -132 29 -184 34 -62 83 -101 161
-131 54 -20 70 -20 1724 -20 1654 0 1670 0 1724 20 78 30 127 69 161 131 29
52 30 58 29 184 0 112 -4 142 -27 219 -62 202 -161 361 -326 527 -264 263
-599 417 -1067 490 -116 18 -191 22 -449 24 -170 2 -328 1 -350 -1z m505 -329
c535 -20 980 -210 1217 -517 86 -112 173 -308 173 -389 l0 -29 -1590 0 -1590
0 0 29 c0 47 39 160 85 248 184 349 560 568 1105 644 87 12 368 26 430 22 19
-1 96 -5 170 -8z"/>
</g>
</svg>
