<svg version="1.2" xmlns="http://www.w3.org/2000/svg" viewBox="0 0 1796 1796" width="1796" height="1796">
	<title>rmalogo-svg</title>
	<style>
		.s0 { fill: #88b8db } 
		.s1 { fill: #c6e0f7 } 
		.s2 { fill: #010101 } 
		.s3 { fill: #86a3bf } 
		.s4 { fill: #bfd9ec } 
		.s5 { fill: #8bbadc } 
		.s6 { fill: #07090a } 
		.s7 { fill: #060709 } 
		.s8 { fill: #c1daec } 
		.s9 { fill: #a6cae4 } 
		.s10 { fill: #030303 } 
		.s11 { fill: #040404 } 
		.s12 { fill: #050505 } 
		.s13 { fill: #06080a } 
		.s14 { fill: #020304 } 
		.s15 { fill: #040607 } 
		.s16 { fill: #030405 } 
		.s17 { fill: #020303 } 
		.s18 { fill: #86b6d8 } 
		.s19 { fill: #8ab8da } 
		.s20 { fill: #88b7da } 
		.s21 { fill: #8dbadb } 
	</style>
	<path fill-rule="evenodd" class="s0" d="m1570.1 605.9c3.6 0 7.3 0 11.7 0.3 5.9 0.5 11 0.6 16.6 0.7 5.9 0 11.3 0 17.1 0 6.1 0 11.8 0 17.9 0 3.7 0 7.6 1.1 9.1-3.9 8.8 0.2 13.9-5.4 18.3-11.2 2.6-3.5 3.6-8.3 5.6-12.3 4.6-8.8 4.2-11.4-3.4-17.9-0.7-0.4-1.3-0.5-2.4-0.6-3.9-0.3-7.2-0.7-10.7-1.4-3.2-2.1-6.1-3.1-8.5 1.3-8.1 0-15.7 0.1-23.6-0.2-1.5-0.4-2.6-0.5-3.6-0.9 1.6-0.8 3.2-1 4.3-1.9 6-5.3 13.9-5.6 21-7.5 5.2-1.5 10.9-0.6 16-3.9 6.3-4 13.2-7.1 20-10.3 4.1-2 8.4-3.4 12.6-5.2 4.8-2 9.9-3.6 14.4-6.2 3.7-2.1 11.2-3.1 13.7 0.2 4.4 5.8 7.9 12.2 11.4 18.6 3.2 5.7 6.1 11.5 8.9 17.4 1.5 3.2 2.4 6.6 3.6 10.3 0.4 3.3-0.1 6.7 3.8 8.2 0 4.8 0 9.1-0.4 13.5-1.1 1.2-2.3 2.3-2.4 3.5-0.5 4.2-0.7 8.4-1 13 0 6.1 0 11.8 0 17.8 0.3 3.3-0.1 6.7 3.8 8.2 0 5.8 0 11.1-0.4 16.5-1.3 3.1-2.4 6.1-3.4 9.5-0.1 3.8-0.1 7.1-0.5 10.5-1.4 1.4-2.4 2.7-3.5 4.5-2.3 4.4-4.5 8.5-7 12.4-2.7 4.5-7.7 3.8-11.8 5-7.8 2.4-15.6 4.9-23.4 7-6.6 1.8-13.4 2.6-20 4.5-6 1.7-11.8 4.3-17.7 6.3-1.3 0.5-3.1 0.6-4.4 0-8.6-3.7-14.3-10.8-17.4-19.1-2.4-6.1-2.3-12.9-1.2-19.9 1.9-11.9 3.4-24.5-7.4-33.9-3.9-3.4-7.8-7-12.3-9.5-4.4-2.6-9.4-4.1-14.3-5.7-6.9-2.4-13.9-6-20.9-6.2-9.3-0.1-19-2.9-28.5 3-4.8 3-7.5 6.6-10.8 10.5-4.1 4.8-8 10.3-13.2 13.6-4.6 2.9-10.9 3.1-16.4 4.4-1.8 0.4-3.9 0.1-5.3 0.9-7.9 4.5-11.4 11.8-13.1 20.3-0.3 1.4-0.8 2.8-1.6 4-5 7.7-2.7 14.5 5.9 17.1 0.6 0.2 1.2 0.5 1.8 0.8 6.5 3.6 13 7.3 19.6 10.6 9 4.6 18.3 8.7 27.3 13.4 10.1 5.4 20.7 8.9 31.7 12 7.6 2.1 15 3.4 22.8 3 1.8-0.1 3.7 0.1 5.5 0 2.7-0.1 4.2 1 4 3.8-0.2 2.5 0.1 5.6-1.2 7.1-2.5 2.9-5.9 5.2-9.2 7-6.1 3.2-12.6 5.9-18.8 9-6.9 3.5-13.6 7.3-20.5 10.8-3 1.6-6.1 3-9.2 4.3-4.8 1.8-9.7 3.3-14.4 5.3-4.3 1.9-8.4 4.2-12.5 6.6-6.1 3.4-12.7 6.3-17.9 10.8-6.2 5.2-11.8 11.5-16.2 18.3-2.8 4.4-6.4 9.3-4.4 16 1.1 3.9 0.3 9.4-1.6 13-6.9 12.6-17.5 22.1-28.3 31.5-8.4 7.2-15.1 16.4-22.3 24.9-2 2.4-3.7 5.6-4.3 8.6-2.1 11.8-0.6 23.7 0.6 35.4 0.6 5.7 2.1 11.2 3.3 16.8 1.4 6.8 2.8 13.6 4.4 20.4 0.2 0.9 1.4 1.5 1.9 2.3 0.6 1.1 1.1 2.4 1.6 3.5 1.9 4.2 3.4 8.7 5.8 12.6 3.6 6 7.7 11.8 6.1 19.3-0.2 1-1.2 2.1-2.1 2.7-8.3 5-16 10.2-13.8 21.8 0.5 2.6-0.5 5.8 0.8 7.8 3.6 5.8 7.8 11.2 12.1 16.5 6.5 8 5.2 13.9-3.9 18.1-4.8 2.3-8.1 6-8.1 11.9 0 2.9-0.4 6.2-1.8 8.6-3.3 5.2-7 10.2-11.2 14.7-3.3 3.7-4.4 9.2-9.8 11-2.7 1-5.5 1.9-7.9 3.3-6.1 3.6-12.6 6.9-18 11.5-6.1 5.2-12 11.1-16.8 17.6-3.3 4.5-5.3 10.4-6.5 16-1.2 5.3-2.2 11.7-0.2 16.2 3.7 8.5 11.9 13.3 20.7 15.9 5.7 1.6 7.7 5.2 4.3 9.9-0.5 0.8-1.1 1.6-1.5 2.5-2.2 4.2-4.3 8.4-6.6 12.6-1 1.8-2.4 4.7-3.7 4.7-5.7 0-11.7 0.1-17-1.6-7.8-2.4-15.5-2.8-23.4-2.1-1.7 0.1-3.2 2-4.9 3-1.1 0.7-2.2 1.9-3.3 1.9-7.3 0.4-13.4-3.5-19.8-6-7.1-2.8-13.8-7.2-21.7-6.6-3.5 0.3-6.9 2.4-10.4 3.7-7.8 3-15.8 5.5-23.4 8.9-7 3.2-13.5 7.4-20.2 11.2-2.5 1.4-4.9 3.1-7.2 4.8-5.8 4.2-11.7 8.3-17.3 12.8-2.9 2.3-1.6 7.5 2.1 8.6 1.9 0.5 3.9 0.4 5.8 0.8 1 0.2 2.4 1 2.5 1.7 0.2 0.8-0.5 2.7-1.2 2.8-5.3 1.3-9.5 5.9-15.8 4.6-11.4-2.3-21.6 5.1-32.9 4.6-0.8-0.1-1.6 0.4-2.3 0.7-5.3 2.2-10.6 4.4-16 6.5-4.2 1.7-8.8 2.7-12.5 5-10.4 6.5-18.5 15.6-26.6 24.6-2.2 2.6-3.7 5.8-5.2 8.9-3.1 6.2-5.9 12.7-9.1 18.9-3.2 6.2-6.8 12.2-10.3 18.2-1.5 2.6-4.5 5.2-4.3 7.6 0.5 7-3.5 12.6-4.5 19-0.3 2-1.3 3.9-2.3 5.7-3.1 5.8-6.3 11.5-9.5 17.3-2.2 3.9-4.1 7.9-6.4 11.7-3.1 4.8-6.7 9.3-9.8 14.1-4.5 7.1-8.8 14.4-13 21.7-2.8 4.8-5.4 9.8-8.5 15.5-1.4 0-3.7 0-6 0q-356 0-712 0c-1.1 0-2.3-0.1-3.5 0-2.9 0.3-4.6-0.8-4-3.9 1.8-10.8-5.7-18-10.1-26.4-2.6-5-6.7-9.2-9.7-14-1.9-3.2-3.7-6.8-4.1-10.3-0.9-7.6-0.8-15.3-1.2-22.9 0-1.3-0.4-2.6-0.8-3.8-0.7-2.5-1.9-4.9-2.1-7.4-0.3-4.4-0.1-9 0-13.5 0-1.2 0.1-3 0.9-3.6 5-4 9.9-8.1 15.2-11.4 5.6-3.4 12.2-5.2 17.4-9 5.3-3.9 9.9-8.8 10.7-16.3 0.4-4 2.7-8.1 5-11.5 2.8-4.1 7.8-3.6 12.2-3.8 3.9-0.2 8 0.9 10.5-3.5 1.7-2.8 3.7-5.3 6.2-8.7 0.2 0 1.7-0.1 3.5 0 7.7 11.7 18.6 16.1 31.1 12.8 10.2-2.7 18.7-13.2 19.3-23.7 0.7-12.6-5.9-22.8-18.6-27.6-3.1-1.2-2.9-3-2.9-5.3q0-68.2 0-136.4c0-1.4 0.3-2.7 0.8-4.1 1.6-0.4 2.9-0.6 4.2-1 8.4-2.9 9.4-5.3 5-12.8-3.1-5.1-6.4-10-9.8-15.5-0.2-3.2-0.2-5.9-0.2-8.9 2.9 0 4.8 0 6.8 0q49.8 0 99.5 0c8.2 0 9-0.8 9-8.7q0-115 0-230c0-3.3 0.9-8-4.1-8.1-5.5-0.2-4.4 4.8-4.4 8.3 0 74.6 0 149.3 0 223.9 0 2 0 3.9 0 6.1-2.5 0-4.3 0-6.1 0q-50.3 0-100.5 0c-7.7 0-8.2 0.5-9.2 7.9-6.9-5.8-15-8.1-22.9-11-3.8-1.4-7.6-3.2-11.6-3.8-5.2-0.8-10.3 1.5-15.4 2.3-10.5 1.6-21.4 0.9-32.2 1.2-5.3 0.1-10.3-2.8-16.1-0.9-5.8 1.8-6.9 0-8.3-5.1-2.6-9.4 0.4-18.6 0.4-27.9 0.1-9.8 3.1-19.8-2.8-29.2-1.5-2.4-2.5-6.4 2.8-8.2 4-1.3 8.9-2.5 9.9-8.2 0.5-2.5 1.7-4.8 2.7-7.2 1.8-4.1 3.6-8.2 5.5-12.3 2.1-4.2 4.6-8.2 6.3-12.5 1.2-3.1 2.4-6.8 1.8-9.9-1-5.4-3.6-10.4-8.1-14.1-2.9-2.4-5.6-5.1-7.9-8-1.1-1.3-1.8-4-1.2-5.3 4.1-8.4 9.9-15.7 17.4-21.3 3.9-2.9 8.6-4.9 12.8-7.5 1.7-1 4.3-3.6 4.1-4-1.4-2.3-3.2-5.5-5.4-5.8-6.8-1.3-12.2-5.1-17.6-9-8-5.7-16.4-11.2-23.7-17.8-6.8-6-11.6-13.7-13-23-0.3-1.7-1.1-3.4-2-4.9-2.2-3.8-1.6-10.7 2.1-13.3 5.7-4 12.1-7.1 17.6-11.3 4.2-3.1 9.4-6.8 10.8-11.3 2.7-8.4-1-16.9-4.7-24.5-1.6-3.2-4.3-6-9.2-6.5-5.8-0.5-11.9-2.2-16.8-5.2-6-3.8-8.6-10.6-8.8-18.2 1.6-3.5 3.8-6.4 4.5-9.7 0.8-3.4 2.2-4.1 5.4-4.1 23.7 0.1 47.3 0.1 71 0.1 1.3 0 2.6 0.1 4.4 0.2 0 2.3 0 4.2 0 6.2q0 55.5 0 110.9 0 1.8 0 3.5c0 3.9 1.7 5.7 5.8 5.7 12.3-0.2 24.6-0.1 37-0.1q7.9 0 15.8 0c0.5 2.1 0.8 3.7 1.2 5.3 3.8 14.1 18.2 22.2 32.9 18.7 13.3-3.2 22.1-17.5 19.2-31.2-2.5-11.9-11.6-20.1-23.9-21.4-11.1-1.3-22.5 5.5-27 16.6-1.3 3-2.7 3.9-5.8 3.8-7.3-0.2-14.7 0-22 0-8.1 0-16.2 0-24.7 0 0-2.6 0-4.6 0-6.5q0-56 0-112c0-7.3-0.9-8.2-7.9-8.2q-12.8 0-25.5 0-27.5 0-55 0c-1.3-3.1-2.5-6-3.2-8.9 40.2-0.1 80-0.1 119.7 0.3-0.1 21.8-0.1 43.1-0.1 64.4 0 7.1 0.6 7.6 7.7 7.7q44.2 0 88.4 0c1.8 0 3.6 0 5.2 0 6.1 17.7 17 25.1 32.5 22.4 11.9-2.1 21.4-13.5 21.5-25.8 0-13.4-9.5-25.1-22.1-27.1-11.3-1.7-26.2 2.7-31.6 21.7-31.1 0-62.1 0-93.5 0 0-21.5 0-42.6 0.5-63.8 60.2 0 119.9 0.1 179.6 0.5 1.1 14.3 9.1 22.3 22.3 26.1 0 1.9 0 3.7 0 5.5q0 66 0 131.9c0 7.3 0.8 8.1 8 8q61-0.5 121.9-1c1.8 0 3.6 0 5.3 0 4.7 15.1 16.3 23 30.2 21 12.8-1.8 22.8-12.8 23-25.6 0.3-13.1-9.3-25.2-21.8-27.2-11.5-2-27.2 2.5-32.5 24-41.6 0-83.3 0-125.3 0 0-45.5 0-91.1 0-136.6 15.9-5.1 23.5-15.1 22.9-29.4 10.9-4.5 21.3-8.9 31.8-12.8 0 32.6-0.1 64.8 0.1 96.9 0 3.5-0.9 5.1-4.5 6.2-12.7 4-20.2 16.4-18.1 29.1 2.1 13.4 13.3 23.1 26.7 23 13.4-0.2 24.4-9.6 26.6-23.1 2.1-12.4-5.9-25.1-18.4-29.2-1.3-0.5-2.7-0.9-4.2-1.4 0-33.9 0-67.5 0-101.2 0-2.1-0.2-4.3 0-6.6 11.5-8.5 20-19.1 27.2-30.8 1.2 0.4 2 0.7 2.8 0.7 21.4 0 42.9 0.4 64.4-0.2 8-0.3 16-2.6 23.7-5 13.1-4.1 24.6-11.3 35.1-20.2 10.5-8.9 18.1-19.6 24.1-31.8 6.5-13.7 8.5-28 7.8-43-0.8-17.8-6.5-33.8-16.9-48-4.9-6.6-10.8-12.5-15.9-19.1 2.3-0.4 4.2-0.7 6.2-0.7q188.7 0 377.3 0c2.2 0 4.3 0.1 6.5 0.5-6.5 27.2-4.4 53.6 3.5 79.8 6.1 20.4 14.7 39.9 24.6 58.7 23.5 44.7 52.7 85.6 84.6 124.6 5.4 6.6 11.1 13.1 17.2 20.3 1.4-1.8 2.5-3 3.5-4.3 11.3-13.9 23-27.6 34-41.9 29.2-38.2 56-78.1 75.8-122.2 8.3-18.5 15.2-37.6 18.7-57.7 0.2-1.4 1.9-3.2 3.2-3.6 13.4-4.4 25.5-11.3 37.4-19.2 7.8 4.6 14.9 10.1 22.9 13.4 7.5 3 15.6 6.4 24.3 5 4.3 1.4 8.4 3.2 12.6 3.4 9.9 0.5 19.8 0.2 29.7 0.1 1.6 0 3.1-0.5 5-0.9 0.8 0.1 1.2 0.1 1.6 0.4 0.1 1.1 0 1.8-0.3 2.5-1.7 0.4-3.1 0.5-4.2 1.2-4 2.2-9.5 3.7-11.4 7.1-2.9 5.6-3.5 12.4-5.4 18.8-1.1 2-1.8 4-2.6 6.5 0 3.1 0 5.8-0.2 8.7 0.5 1 1.4 1.9 2.6 2.8 1.5 0 2.6-0.1 3.7-0.1zm-963.7 399.1q-7.3 0-14.5 0-29.8 0-59.5 0c-3 0-5.5 0.6-5.6 4.1-0.1 3.6 2.6 4.3 5.5 4.4 1.1 0.1 2.3 0.1 3.4 0.1q33 0 66 0c1.8 0 3.6 0 5.5 0 0.2 1.4 0.3 2.2 0.3 3 0.1 29.8 0 59.6 0.1 89.4 0.1 3.2-1.5 4.4-3.8 5.6-23.7 13.2-47.3 26.5-71.1 39.6-3.6 2-5.2 4.3-5.1 8.6 0.2 15.7 0 31.3 0.2 47 0 3.4-0.8 4.7-4.3 5.7-13.6 3.8-21.4 17.8-18.4 31.8 2.9 13.1 15.9 22.2 29.6 20.6 13.7-1.6 24.2-13.7 23.4-27.7-0.8-13.9-8.9-21.9-22.1-25.8 0-16 0.1-32-0.1-47.9 0-3.6 1.3-5.2 4.2-6.9 23.6-13 47-26.3 70.6-39.3 3.9-2.2 5.4-4.6 5.3-9-0.1-31.5-0.1-63-0.1-94.5 0-8.4-0.3-8.8-9.5-8.8zm-126 31.2c0-14.4-8.1-25.5-20.6-28.2-14.5-3.2-28.3 4.6-33.2 20.8-29.1 0-58.2 0-87.5 0 0-25 0-49.8 0-74.5 17.9-6.4 25.9-16.9 23.7-30.9-2.2-13.3-13-22.8-26.2-23.2-12.7-0.4-24.1 8.9-26.9 21.7-2.8 13.6 4.6 25.3 20.7 31.9 0 1.7 0 3.5 0 5.3q0 35 0 70c0 7.2 0.8 8.1 7.9 8.1q41.5 0 83 0c1.8 0 3.6 0 5.2 0 4.6 16.5 14.6 24.7 28.6 23.9 13.2-0.8 23.3-10.5 25.3-24.9zm149.4-37.3c0.9 0.4 1.8 0.8 2.7 1.2 13.4 5.7 28.2 0.1 34.6-13 6.2-12.4 1.2-28-11.1-35-12.1-6.8-27.8-2.9-35.6 9-1.5 2.4-2.6 5-3.7 7.3-22 0-43.9 0-66.1 0 0-2.4 0-4.4 0-6.4q0-81.9 0-163.9c0-1.5 0.4-3.2-0.2-4.4-0.9-2-2.4-5-4-5.2-3.1-0.5-4.3 2.3-4.3 5.4q0 1.5 0 3 0 85.7 0 171.4c0 0.8 0 1.7 0 2.5-0.3 4.4 1.6 6.4 6.2 6.3 8.5-0.2 17-0.1 25.5-0.1 14 0 27.9 0 41.8 0 3.4 12.8 5.4 15.9 14.2 21.9zm857.1-414.4c3.5 6 6.9 12.1 10.5 18 3.7 6 10.6 8 15.9 4.9 5.9-3.4 7.9-10.4 4.4-16.8-3.7-6.9-7.5-13.7-11.8-20.2-1.5-2.3-4.2-4.2-6.8-5.3-4.6-1.7-9.9 0.3-12.7 4.4-3.3 4.7-3.1 9.6 0.5 15z"/>
	<path class="s1" d="m674 669c-7 12-15.5 22.6-27.3 31.3-3 2.1-5.5 3.9-7.9 5.7-10.5 4.3-20.9 8.7-32.1 13.2-3.4 0.7-6 1.3-9 1.8-12.4 0.4-24.3 0.9-36.6 1.2-3-0.1-5.5-0.1-8-0.1-59.8 0-119.5-0.1-180.2-0.1-3.2 0-5.5 0-7.9 0-39.8 0.1-79.6 0.1-120.3 0.1-4.2-0.1-7.4-0.1-11.2-0.1-7.1 0.3-13.7 0.6-20.7 0.9-1.3-0.4-2.1-0.6-3.5-0.8-4 0.3-7.6 0.6-11.2 1-2.5-0.4-5.1-1.1-7.6-1-22.4 0.7-43.7-3.4-63.4-14.1-29-15.8-48.1-39.5-53.7-72.2-6.4-37.6 6.4-68.8 35.6-93.5 14.2-11.9 30.5-19.3 48.4-23.3 3.4-0.8 4.4-1.9 4-6-1.4-15.3-0.2-30.5 3.9-45.4 7.3-27.1 21.9-49.9 43-68.1 20.2-17.6 43.9-28.5 70.7-31.5 18.7-2.2 37.1-1.9 56 4 34.7 10.6 61 31.1 79.3 61.7 1.9 3.1 3.8 3.8 7.3 2.4 22.4-9.3 45.5-11.1 69.3-6.1 23.5 4.9 43.5 16.5 59.9 33.7 17 17.7 27.5 39 31.2 63.4 0.5 3.1 2.1 3.9 5.1 4 5 0.2 10 0.5 14.8 1.5 25.8 5.1 47.3 17.2 63.4 38.3 15.9 20.7 22 44.2 17.7 69.8-1.6 9.6-5.9 18.9-9 28.3z"/>
	<path fill-rule="evenodd" class="s2" d="m1491.4 536.9c-11.5 8-23.6 14.9-37 19.3-1.3 0.4-3 2.2-3.2 3.6-3.5 20.1-10.4 39.2-18.7 57.7-19.8 44.1-46.6 84-75.8 122.2-11 14.3-22.7 28-34 41.9-1 1.3-2.1 2.5-3.5 4.3-6.1-7.2-11.8-13.7-17.2-20.3-31.9-39-61.1-79.9-84.6-124.6-9.9-18.8-18.5-38.3-24.6-58.7-7.9-26.2-10-52.6-3.3-80 0.6-2.2 1-3.8 1.4-5.3 7.5-22.3 19.1-42 36.5-58 21-19.4 45.5-31.5 74-35.1 4.2-0.6 6.2-2.1 8-6.2 16.6-37.7 44.9-61.9 85.3-70.5 64-13.6 126.5 26.9 139.7 91.2 9.4 45.5-4.4 84-39.7 115.3-1.4 1.3-2.3 2.2-3.3 3.2zm-200.2-39c-14.8 9.6-16.2 25.4-18.9 40.5-0.5 2.8-0.1 5.9 0.4 8.8 4.6 25.6 36.6 45.8 60.2 34 9.5-4.9 19.5-8.6 25.9-17.7 5.6-8 7.9-16.7 8.3-26.9 0.6-17.3-7.6-28.8-20.6-39.2-1.9-1.4-3.9-2.9-5.9-4.4-1.3-0.9-2.6-2.5-4-2.5-7.3-0.4-14.6-0.3-21.8-0.6-8.8-0.3-16.3 2.6-23.6 8zm156.5 1.1c2.1 10.5 4.1 21.1 6.2 31.9 9.7-3.9 19.1-9.2 27.7-17.1 29.9-27.1 39.9-67.5 25.8-104.2-14.7-37.9-49.4-61.6-90.2-61.4-35.1 0.1-72.4 24.3-83.9 54.7 0.5 0.1 0.9 0.4 1.4 0.5q1.2 0.2 2.5 0.4c35.2 5 63.9 21.5 86.4 48.8 11.2 13.5 18.5 29.1 24.1 46.4z"/>
	<path class="s3" d="m674.2 669.3c2.9-9.7 7.2-19 8.8-28.6 4.3-25.6-1.8-49.1-17.7-69.8-16.1-21.1-37.6-33.2-63.4-38.3-4.8-1-9.8-1.3-14.8-1.5-3-0.1-4.6-0.9-5.1-4-3.7-24.4-14.2-45.7-31.2-63.4-16.4-17.2-36.4-28.8-59.9-33.7-23.8-5-46.9-3.2-69.3 6.1-3.5 1.4-5.4 0.7-7.3-2.4-18.3-30.6-44.6-51.1-79-61.7 10.7-15.8 24.7-28.5 41.3-38.1 22.5-13.1 47-19.6 73-18.6 31.1 1.1 58.8 11.6 82.9 31.5 12.2 10.1 22.1 22.1 30.2 35.7 1.9 3.3 3.6 3.7 7.1 2.3 45.7-18.2 95.3-7.6 129.1 27.6 16.3 17 26.6 37.3 30.7 60.5 0.9 5 2.9 6.7 7.5 6.8 19.9 0.7 37.7 7.6 54.7 18.6 2.7 1.8 5 3.3 7.2 4.7 5.4 6.3 11.3 12.2 16.2 18.8 10.4 14.2 16.1 30.2 16.9 48 0.7 15-1.3 29.3-7.8 43-6 12.2-13.6 22.9-24.1 31.8-10.5 8.9-22 16.1-35.1 20.2-7.7 2.4-15.7 4.7-23.7 5-21.5 0.6-43 0.2-64.4 0.2-0.8 0-1.6-0.3-2.8-0.7z"/>
	<path class="s4" d="m1743.9 651.9c0-5.3 0-10.6 0-16.7-1.2-3.4-2.5-5.8-3.8-8.3 0-5.6 0-11.3 0.4-17.5 1.4-5.9 2.4-11.2 3.4-16.5 0-4.3 0-8.6 0-13.7-1.3-3.3-2.5-5.8-3.8-8.3-1.2-3.3-2.1-6.7-3.6-9.9-2.8-5.9-5.7-11.7-8.9-17.4-3.5-6.4-7-12.8-11.4-18.6-2.5-3.3-10-2.3-13.7-0.2-4.5 2.6-9.6 4.2-14.4 6.2-4.2 1.8-8.5 3.2-12.6 5.2-6.8 3.2-13.7 6.3-20 10.3-5.1 3.3-10.8 2.4-16 3.9-7.1 1.9-15 2.2-21 7.5-1.1 0.9-2.7 1.1-4.3 2.2 1.2 0.7 2.5 0.8 3.8 0.9 7.7 0 15.3-0.1 23.8-0.1 3.3-0.3 5.8-0.6 8.2-0.9 3.4 0.3 6.7 0.7 10.7 1.2 1.2 0.4 1.8 0.6 2.4 0.7 7.5 6.2 7.9 8.8 3.3 17.6-2 4-3 8.8-5.6 12.3-4.4 5.8-9.5 11.4-18.7 11.3-3.6 1.3-6.4 2.5-9.2 3.8-5.6 0-11.3 0-17.5-0.4-5.9-0.6-11.1-1-16.4-1.1-0.4 0-0.7 1-1.1 1.5-5.1-0.1-10.2-0.2-15.6-0.7 3.5-1.6 7.3-3.8 11.2-4 10.1-0.5 20.2 0 30.3-0.2 6.1-0.1 12.3-0.1 18.3-1.2 7.7-1.4 13.5-6.3 17.6-12.7 3-4.6 5.2-9.8 6.9-15 0.6-1.7-0.7-4.7-2.1-6.2-3.5-3.6-8.2-4.3-13.3-4-10.2 0.5-20.5 0.6-30.8 1.1-2.3 0.1-4.5 1.9-6.6 1.7-2-0.1-3.8-1.9-5.6-2.9 1.1-1.9 1.8-4.7 3.4-5.6 5.5-3 11.2-5.4 16.9-7.7 2.1-0.8 4.6-0.4 6.9-0.8 6.2-1.2 12.4-2.3 18.5-3.9 3.1-0.9 6-2.7 8.8-4.3 6.1-3.4 12.1-7.1 18.1-10.6 0.7-0.4 1.5-0.8 2.3-0.8 6.8 0 12-3.9 17.4-7.1 7.3-4.4 17.7-2.1 21.7 5.4 5.4 10.3 10.7 20.6 16 30.9 1.7 3.2 3.8 6.2 5.1 9.5 1.3 2.9 2.6 6.1 2.5 9.1-0.3 13.8-1.3 27.5-1.6 41.3-0.1 4 1.5 8.1 1.7 12.2 0.3 7 0.4 14-0.1 21-0.3 5-1.8 9.9-2.8 14.9-0.2 1.1-0.9 2.2-0.9 3.3-0.2 10.3-5.9 17.9-13 24.2-3.3 2.9-8.7 3.6-13.1 5.1-3.1 1.1-6.2 1.8-9.3 2.7-0.5 0.1-0.9 0.5-1.4 0.6q-10.4 2.4-20.9 4.8c-2.1 0.5-4.2 0.9-6.2 1.5-3 0.8-5.9 1.7-8.9 2.5-1.4 0.4-3.4 0.2-4.2 1.1-3.3 3.3-7.2 2.6-11.2 3-9 0.8-13.2-5.9-17.6-11.5-3.3-4.3-6.2-9.5-7.3-14.7-1.3-5.7-1.8-12.3 0-17.6 2.7-7.8 3.2-14.1-0.3-21.9-4.5-10.3-12.5-14.8-21.8-18.7-5.5-2.3-10.7-5.3-16.3-7.1-3.8-1.3-8.2-0.8-12.3-1.4-3.2-0.5-6.3-1.7-9.5-2.2-10.8-1.6-21.5 3.9-27.3 13.6-2.1 3.4-4.3 7-7.3 9.3-5.5 4.3-11.4 8.1-18.8 8.1-9 0-15.4 4.5-18.3 12.8-1.1 3.3-2.5 6.6-3.5 10-1.1 3.4-1.9 6.9-3 11.3 8 3.8 16.7 7.8 25.1 12.1 6.4 3.3 12.4 7.3 18.7 10.6 3.8 2.1 7.9 3.5 11.8 5.3 4.8 2.2 9.6 4.7 14.4 6.9 1.1 0.5 2.4 0.8 3.7 1 1.3 0.2 2.8-0.1 4 0.4 12.1 5.1 25.1 5.9 37.9 7.9 2.4 0.4 4.9 3.9 6.4 6.5 1.3 2.5 1.2 4.9-1.8 7.6-8.3 7.1-17.7 11.9-27.4 16.6-6.9 3.4-13.7 7.2-20.7 10.4-7.2 3.4-14.5 6.4-21.8 9.4-6.1 2.6-12.7 4.4-18.3 7.7-12.6 7.4-24.2 16.2-32 28.9-1.3 2.2-2.6 5.2-2.3 7.5 0.9 5.8-0.4 10.7-1.9 16.2-2.2 7.6-6.2 13.4-11.3 18.6-12.1 12.6-25.4 24.1-36.9 37.2-7.5 8.6-11 19.5-8.7 31.6 2 10.5 2.6 21.3 4.6 31.8 1.4 7.2 4 14.2 6.6 21.1 2.4 6.6 5.5 12.9 8.4 19.3 1.5 3.4 3.7 6.6 4.7 10.1 2.4 8.4-0.2 14-7.8 18-10.1 5.3-10.5 17.9-3.7 25.9 5.2 6.3 9.8 13.1 14.2 19.9 2.2 3.5 0.2 8.2-3.5 10.2-3 1.7-6 3.4-8.7 5.5-1.4 1.1-3.3 3.2-3.1 4.7 1 9.5-5.5 15-10.3 21.5-3.4 4.7-6.5 9.6-10 14.1-1.9 2.4-4.4 4.6-7 6.1-3.8 2.1-8.5 2.6-11.9 5.1-9.3 6.8-18.7 13.7-27 21.6-3.4 3.3-4.3 9.2-5.9 14.1-1.3 3.7-1.3 7.8-2.6 11.5-1.9 5.1 1.9 8.1 4.2 10.9 4.7 5.7 11.2 9.2 18.4 11.4 1.6 0.5 3.2 2.9 3.8 4.8 1.7 5.8-1.6 10.7-4.1 15.3-3.1 6-6 12.6-13.4 14.8-0.5 0.2-1 0.6-1.4 0.6-7.1-1-14.7-0.9-21.3-3.4-8.9-3.4-13.3-3.1-20.1 3.6-1.6 1.6-6 1.7-8.4 0.8-7.8-2.9-14.9-7.6-22.9-9.6-9.6-2.5-19.6-4-29.2 1.8-4 2.4-9 3.3-13.5 5.1-3.1 1.2-6.4 2.4-9.1 4.3-7.3 5.2-16.2 7.8-22.6 14.6-3.5 3.7-8.7 5.9-12.8 9.1-1.2 0.9-1.4 3-2 4.5 1.3 0.5 2.6 1 3.9 1.4 0.6 0.2 1.4-0.1 2 0.1 1.9 0.7 3.7 1.7 5.6 2.5q-1.1 2.3-2.2 4.7c-3.7 7.4-10.9 6.7-17.5 7.6-9.8 1.4-19.8 1.9-29.3 4.4-11.1 2.9-22.1 6.8-32.4 11.8-12.8 6.1-22.8 16.1-29.9 28.5-4.5 7.7-7.9 15.9-12.1 23.7-3.5 6.6-7.4 13-11.4 19.3-3.4 5.5-3.1 12-5 17.8-1.8 6.1-5.4 11.7-8.3 17.4-0.8 1.9-1.8 3.6-2.8 5.4-3.3 6.4-6.2 13-9.9 19.1-4.7 7.8-10.2 14.9-14.9 22.6-5.4 9.1-10.1 18.5-15.5 27.5-0.9 1.7-3.5 2.8-5.5 3.4-1.8 0.6-4 0.2-6 0.2q-356.2 0-712.4 0c-1.5 0-3 0.3-4.4-0.1-3.1-0.9-5.6-2.1-4.5-6.3 2-7.2-2.4-13.1-5.3-18.8-4.1-8-9.6-15.3-14.4-22.9-5.6-8.9-6.3-18.9-7-29.1-0.4-6.3-2.2-12.5-3.2-18.7-0.3-1.8-0.8-3.8-0.3-5.4 2.3-7.9 4.8-15.5 13.8-19.2 7.5-3 14.5-7.5 21.8-11.3 6.2-3.2 9.6-8.9 10.9-15.1 2.2-10.9 8.4-20.1 22-18.3 3.8 0.5 8.6-3.9 10.6-8.4 1-2.1 3.3-3.6 5.6-5.2 1.2 1.7 1.7 3.2 2.2 4.7-1.5 0.1-3 0.2-3.2 0.2-2.5 3.4-4.5 5.9-6.2 8.7-2.5 4.4-6.6 3.3-10.5 3.5-4.4 0.2-9.4-0.3-12.2 3.8-2.3 3.4-4.6 7.5-5 11.5-0.8 7.5-5.4 12.4-10.7 16.3-5.2 3.8-11.8 5.6-17.4 9-5.3 3.3-10.2 7.4-15.2 11.4-0.8 0.6-0.9 2.4-0.9 3.6-0.1 4.5-0.3 9.1 0 13.5 0.2 2.5 1.4 4.9 2.1 7.4 0.4 1.2 0.8 2.5 0.8 3.8 0.4 7.6 0.3 15.3 1.2 22.9 0.4 3.5 2.2 7.1 4.1 10.3 3 4.8 7.1 9 9.7 14 4.4 8.4 11.9 15.6 10.1 26.4-0.6 3.1 1.1 4.2 4 3.9 1.2-0.1 2.4 0 3.5 0q356 0 712 0c2.3 0 4.6 0 6 0 3.1-5.7 5.7-10.7 8.5-15.5 4.2-7.3 8.5-14.6 13-21.7 3.1-4.8 6.7-9.3 9.8-14.1 2.3-3.8 4.2-7.8 6.4-11.7 3.2-5.8 6.4-11.5 9.5-17.3 1-1.8 2-3.7 2.3-5.7 1-6.4 5-12 4.5-19-0.2-2.4 2.8-5 4.3-7.6 3.5-6 7.1-12 10.3-18.2 3.2-6.2 6-12.7 9.1-18.9 1.5-3.1 3-6.3 5.2-8.9 8.1-9 16.2-18.1 26.6-24.6 3.7-2.3 8.3-3.3 12.5-5 5.4-2.1 10.7-4.3 16-6.5 0.7-0.3 1.5-0.8 2.3-0.7 11.3 0.5 21.5-6.9 32.9-4.6 6.3 1.3 10.5-3.3 15.8-4.6 0.7-0.1 1.4-2 1.2-2.8-0.1-0.7-1.5-1.5-2.5-1.7-1.9-0.4-3.9-0.3-5.8-0.8-3.7-1.1-5-6.3-2.1-8.6 5.6-4.5 11.5-8.6 17.3-12.8 2.3-1.7 4.7-3.4 7.2-4.8 6.7-3.8 13.2-8 20.2-11.2 7.6-3.4 15.6-5.9 23.4-8.9 3.5-1.3 6.9-3.4 10.4-3.7 7.9-0.6 14.6 3.8 21.7 6.6 6.4 2.5 12.5 6.4 19.8 6 1.1 0 2.2-1.2 3.3-1.9 1.7-1 3.2-2.9 4.9-3 7.9-0.7 15.6-0.3 23.4 2.1 5.3 1.7 11.3 1.6 17 1.6 1.3 0 2.7-2.9 3.7-4.7 2.3-4.2 4.4-8.4 6.6-12.6 0.4-0.9 1-1.7 1.5-2.5 3.4-4.7 1.4-8.3-4.3-9.9-8.8-2.6-17-7.4-20.7-15.9-2-4.5-1-10.9 0.2-16.2 1.2-5.6 3.2-11.5 6.5-16 4.8-6.5 10.7-12.4 16.8-17.6 5.4-4.6 11.9-7.9 18-11.5 2.4-1.4 5.2-2.3 7.9-3.3 5.4-1.8 6.5-7.3 9.8-11 4.2-4.5 7.9-9.5 11.2-14.7 1.4-2.4 1.8-5.7 1.8-8.6 0-5.9 3.3-9.6 8.1-11.9 9.1-4.2 10.4-10.1 3.9-18.1-4.3-5.3-8.5-10.7-12.1-16.5-1.3-2-0.3-5.2-0.8-7.8-2.2-11.6 5.5-16.8 13.8-21.8 0.9-0.6 1.9-1.7 2.1-2.7 1.6-7.5-2.5-13.3-6.1-19.3-2.4-3.9-3.9-8.4-5.8-12.6-0.5-1.1-1-2.4-1.6-3.5-0.5-0.8-1.7-1.4-1.9-2.3-1.6-6.8-3-13.6-4.4-20.4-1.2-5.6-2.7-11.1-3.3-16.8-1.2-11.7-2.7-23.6-0.6-35.4 0.6-3 2.3-6.2 4.3-8.6 7.2-8.5 13.9-17.7 22.3-24.9 10.8-9.4 21.4-18.9 28.3-31.5 1.9-3.6 2.7-9.1 1.6-13-2-6.7 1.6-11.6 4.4-16 4.4-6.8 10-13.1 16.2-18.3 5.2-4.5 11.8-7.4 17.9-10.8 4.1-2.4 8.2-4.7 12.5-6.6 4.7-2 9.6-3.5 14.4-5.3 3.1-1.3 6.2-2.7 9.2-4.3 6.9-3.5 13.6-7.3 20.5-10.8 6.2-3.1 12.7-5.8 18.8-9 3.3-1.8 6.7-4.1 9.2-7 1.3-1.5 1-4.6 1.2-7.1 0.2-2.8-1.3-3.9-4-3.8-1.8 0.1-3.7-0.1-5.5 0-7.8 0.4-15.2-0.9-22.8-3-11-3.1-21.6-6.6-31.7-12-9-4.7-18.3-8.8-27.3-13.4-6.6-3.3-13.1-7-19.6-10.6-0.6-0.3-1.2-0.6-1.8-0.8-8.6-2.6-10.9-9.4-5.9-17.1 0.8-1.2 1.3-2.6 1.6-4 1.7-8.5 5.2-15.8 13.1-20.3 1.4-0.8 3.5-0.5 5.3-0.9 5.5-1.3 11.8-1.5 16.4-4.4 5.2-3.3 9.1-8.8 13.2-13.6 3.3-3.9 6-7.5 10.8-10.5 9.5-5.9 19.2-3.1 28.5-3 7 0.2 14 3.8 20.9 6.2 4.9 1.6 9.9 3.1 14.3 5.7 4.5 2.5 8.4 6.1 12.3 9.5 10.8 9.4 9.3 22 7.4 33.9-1.1 7-1.2 13.8 1.2 19.9 3.1 8.3 8.8 15.4 17.4 19.1 1.3 0.6 3.1 0.5 4.4 0 5.9-2 11.7-4.6 17.7-6.3 6.6-1.9 13.4-2.7 20-4.5 7.8-2.1 15.6-4.6 23.4-7 4.1-1.2 9.1-0.5 11.8-5 2.5-3.9 4.7-8 7.3-12.5 1.4-1.8 2.5-3.1 3.5-4.5 0.1-3.3 0.1-6.6 0.5-10.5 1.4-3.5 2.5-6.5 3.5-9.5z"/>
	<path class="s5" d="m354.2 1299c-7.5-9-15.1-18-22.5-27.1-0.9-1-1.5-2.2-1.9-3.4-1.7-6.4-2.7-12.9-4.9-19.1-2.5-6.8-5.8-13-14.4-14.6-5.3-1-10.1-4.3-15.3-6-6.6-2.3-13.4-4.1-20.2-5.8-2.3-0.6-5-0.4-7.5-0.1-14.9 1.8-23.6-6.8-30.6-18.2-2.5-3.9-5.7-7.5-6.8-11.8-1-3.7-0.7-9.1 1.4-11.9 1.4-1.9 7.4-1.7 10.8-0.5 9.4 3.2 18.2 4 27.6-0.5 7.1-3.4 15.1-2.8 22.4-0.1 7.6 2.7 14.1-0.1 20.4-3.2 6.5-3.1 13.5-3.9 19.1-0.7 13.4 7.5 25.1 4.7 36.5-3.7 2.8-2.1 5.3-4.8 8.4-6.8 0.4 38.6 0.4 76.8 0.4 115-11.8 1.8-18.7 8.6-22.9 18.5z"/>
	<path fill-rule="evenodd" class="s6" d="m354.1 1299.4c4.3-10.3 11.2-17.1 23-18.9 0-38.2 0-76.4-0.1-115.1-0.1-21.8 0-43.1 0.1-65.3-0.1-1.5-0.2-2.3-0.2-3 0.6-7.5 1.1-8 8.8-8q50.2 0 100.5 0c1.8 0 3.6 0 6.1 0 0-2.2 0-4.1 0-6.1 0-74.6 0-149.3 0-223.9 0-3.5-1.1-8.5 4.4-8.3 5 0.1 4.1 4.8 4.1 8.1q0 115 0 230c0 7.9-0.8 8.7-9 8.7q-49.7 0-99.5 0c-2 0-3.9 0-6.8 0 0 3 0 5.7 0.1 9.4 0.1 10.2 0.2 19.6 0.3 28.9-0.1 1.3-0.4 2.6-0.4 4q0 68.2 0 136.4c0 2.3-0.2 4.1 2.9 5.3 12.7 4.8 19.3 15 18.6 27.6-0.6 10.5-9.1 21-19.3 23.7-12.5 3.3-23.4-1.1-31.1-12.8-0.8-1.7-1.3-3.2-2.1-4.9-0.3-5.3-0.4-10.3-0.4-15.8zm28.9-10.4c-1.3-0.1-2.6-0.3-3.9-0.2-11.2 0.7-18.8 10.2-17.1 21.4 1.5 10.2 11.7 17.1 22.1 14.9 8.3-1.8 14.3-8.8 14.7-17.4 0.4-8.6-5.3-15.8-15.8-18.7z"/>
	<path fill-rule="evenodd" class="s7" d="m234 722c3.3 0 6.5 0 10.2 0.1 1.7 3 2.9 5.9 4.2 9q27.5 0 55 0 12.7 0 25.5 0c7 0 7.9 0.9 7.9 8.2q0 56 0 112c0 1.9 0 3.9 0 6.5 8.5 0 16.6 0 24.7 0 7.3 0 14.7-0.2 22 0 3.1 0.1 4.5-0.8 5.8-3.8 4.5-11.1 15.9-17.9 27-16.6 12.3 1.3 21.4 9.5 23.9 21.4 2.9 13.7-5.9 28-19.2 31.2-14.7 3.5-29.1-4.6-32.9-18.7-0.4-1.6-0.7-3.2-1.2-5.3q-7.9 0-15.8 0c-12.4 0-24.7-0.1-37 0.1-4.1 0-5.8-1.8-5.8-5.7q0-1.7 0-3.5 0-55.4 0-110.9c0-2 0-3.9 0-6.2-1.8-0.1-3.1-0.2-4.4-0.2-23.7 0-47.3 0-71-0.1-3.2 0-4.6 0.7-5.4 4.1-0.7 3.3-2.9 6.2-4.8 9.8-1.2 1.4-2 2.3-2.8 3.2-16 12.8-34.3 5.9-41.4-6.6-4.8-8.6-4.9-17.3-0.5-26.5 3.7-0.8 7.3-1.1 11.2-1.1-8 8.8-8.2 20.4 0 27.9 8.3 7.4 20.1 6.2 27.7-3.1 5.7-9.4 3.2-17.5-2.9-25.2zm181.3 160.3c9.5-1 15.9-7 16.9-16 1.1-8.7-3.9-16.8-12.1-19.5-7.4-2.4-14.2-1-19.6 4.7-5.4 5.6-6.4 12.4-3.6 19.4 3.1 7.9 9.1 11.6 18.4 11.4z"/>
	<path class="s8" d="m240 757c0.7-1.3 1.5-2.2 2.6-3.3 0.6 7.2 3.2 14 9.2 17.8 4.9 3 11 4.7 16.8 5.2 4.9 0.5 7.6 3.3 9.2 6.5 3.7 7.6 7.4 16.1 4.7 24.5-1.4 4.5-6.6 8.2-10.8 11.3-5.5 4.2-11.9 7.3-17.6 11.3-3.7 2.6-4.3 9.5-2.1 13.3 0.9 1.5 1.7 3.2 2 4.9 1.4 9.3 6.2 17 13 23 7.3 6.6 15.7 12.1 23.7 17.8 5.4 3.9 10.8 7.7 17.6 9 2.2 0.3 4 3.5 5.4 5.8 0.2 0.4-2.4 3-4.1 4-4.2 2.6-8.9 4.6-12.8 7.5-7.5 5.6-13.3 12.9-17.4 21.3-0.6 1.3 0.1 4 1.2 5.3 2.3 2.9 5 5.6 7.9 8 4.5 3.7 7.1 8.7 8.1 14.1 0.6 3.1-0.6 6.8-1.8 9.9-1.7 4.3-4.2 8.3-6.3 12.5-1.9 4.1-3.7 8.2-5.5 12.3-1 2.4-2.2 4.7-2.7 7.2-1 5.7-5.9 6.9-9.9 8.2-5.3 1.8-4.3 5.8-2.8 8.2 5.9 9.4 2.9 19.4 2.8 29.2 0 9.3-3 18.5-0.4 27.9 1.4 5.1 2.5 6.9 8.3 5.1 5.8-1.9 10.8 1 16.1 0.9 10.8-0.3 21.7 0.4 32.2-1.2 5.1-0.8 10.2-3.1 15.4-2.3 4 0.6 7.8 2.4 11.6 3.8 7.9 2.9 16 5.2 22.9 11 0.4 0.8 0.5 1.6 0.5 2.7-3.3-1.1-6.6-2.4-9.8-3.9-5-2.3-9.9-4.7-14.9-6.9-1.4-0.6-2.9-0.9-4.3-0.9-7.5-0.1-14.9-0.4-22.3 0.1-3.8 0.3-7.4 2.4-11.3 3.1-6.7 1.3-13.3 1.1-19.6-2.5-2.1-1.1-5.1-0.6-7.8-0.7-2.5-0.1-5-0.1-7.5 0-10.4 0-15-3.8-15.2-14.4-0.2-8.8 0.2-17.5 3-26.3 1.9-5.9 2.9-13.3-1.7-19.6-3.1-4.1-3-12.4-0.4-15.3 0.7-0.7 1.5-1.9 2.3-1.9 10.4-0.4 10.6-8.9 12.9-15.9 1-3 2.7-5.8 4.2-8.7q3.3-6.2 6.8-12.3c1.4-2.5 0.8-13-1.2-15.1-3.4-3.8-6.9-7.6-10.5-11.3-4.3-4.6-5.3-11.1-1.4-15.8 6.1-7.3 12.4-14.4 19.2-21 2.7-2.6 7-3.6 10.6-5.3q0-0.8 0-1.7c-2.5-1.2-5.2-2.1-7.5-3.6-4.7-2.8-9.4-5.7-13.7-8.9-7.9-6-15.8-12-23.2-18.5-5.8-5.1-9.5-11.5-12.3-19.1-2.4-6.4-3.5-12.5-3.3-19.1 0.1-1.8 1.1-4.3 2.5-5.3 6-4.3 12.3-7.9 18.4-12.1 3.6-2.4 7.2-5.1 10.1-8.3 1.1-1.2 0.8-4.1 0.4-6.1-0.8-3.8-2.3-7.5-3.2-11.3-2.4-10.5-5.7-11.5-14.5-12.3-7.4-0.7-14.3-3.7-17.9-11-1.6-3.3-2.6-6.9-3.9-10.8z"/>
	<path class="s9" d="m799.3 502.7c-2.5-1.1-4.8-2.6-7.2-4.3 2-0.7 4-1.3 6.1-1.3q192.6 0 385.3 0c2.1 0 4.3 0 6.9-0.1 0.1 1.5-0.3 3.1-0.9 4.9-2.4 0.2-4.5 0.1-6.7 0.1q-188.6 0-377.3 0c-2 0-3.9 0.3-6.2 0.7z"/>
	<path class="s10" d="m1517 297c-3.4 5.9-6.6 11.5-9.9 17.1-4.1 7-10.7 9.4-16.7 6.1-6.5-3.6-8-10.6-3.8-18.1 3.2-5.6 6.4-11.2 9.7-16.8 4.5-7.7 10.4-10.1 16.7-6.6 6.6 3.6 8.1 10.1 4 18.3z"/>
	<path class="s11" d="m1343.4 288.6c2.9 5 5.8 9.7 8.4 14.5 3.6 6.6 1.6 13.9-4.6 17.2-5.6 3-12.3 0.8-16.1-5.5q-5.5-9.2-10.7-18.5c-4-7.2-2.3-13.9 4.3-17.5 6.1-3.4 12.1-1.4 16.3 5.6 0.7 1.3 1.5 2.6 2.4 4.2z"/>
	<path class="s11" d="m1548.5 354.5c5.9-3.4 11.5-6.7 17.2-9.8 7-3.8 13.8-2.3 17.3 3.8 3.4 5.8 1 12.8-5.8 16.8-5.6 3.3-11.2 6.5-16.8 9.7-7.8 4.4-14.5 3.4-18.3-2.9-3-5-2.4-13.4 6.4-17.6z"/>
	<path class="s10" d="m1256.6 362.3c-4.4-6.3-4.4-11.5-0.3-16.2 4.1-4.5 9.4-5 15.8-1.5 6.1 3.4 12.1 6.9 18.1 10.4 6.9 4.1 9 10.7 5.7 16.9-3.3 5.9-10.5 7.6-17.3 3.7-7.3-4.2-14.5-8.7-22-13.3z"/>
	<path class="s11" d="m1551 532.9c-2.1-1.3-4.1-2.3-5.8-3.6-4.8-3.7-6.1-10.1-3.2-15.2 2.8-4.9 8.9-7.5 14.1-4.9 8.3 4.1 16.4 8.7 24.2 13.8 4.9 3.1 5.5 10.2 2.4 15.2-3.1 5-9.7 6.9-15.3 4-5.5-2.9-10.7-6.1-16.4-9.3z"/>
	<path class="s12" d="m1577.2 431.2c6.4 0 12.4-0.2 18.4 0 7.9 0.2 12.5 4.7 12.5 11.9 0 7.1-4.7 11.6-12.6 11.7-6.8 0.2-13.7 0.1-20.5 0-8.4 0-13.9-4.7-14-11.6 0-7.1 5.4-11.8 13.7-12 0.6-0.1 1.3 0 2.5 0z"/>
	<path class="s11" d="m1430.9 281c-0.1 3.1 0.1 5.8-0.1 8.4-0.6 6.6-6.2 11.8-12.2 11.5-6.2-0.2-11.4-5.5-11.5-12.1-0.2-7.8-0.2-15.6 0-23.4 0.2-6.9 4.7-11.3 11.1-11.5 7.2-0.3 12 3.8 12.5 11.1 0.4 5.2 0.1 10.3 0.2 16z"/>
	<path class="s4" d="m1491.8 537c0.6-1.1 1.5-2 2.8-3 5.9 4.6 11.3 9.2 18.7 11.2 5.1 1.4 9.7 4.5 14.7 6 4.1 1.2 8.5 1.7 12.7 1.7 13.6 0.3 27.3-0.1 40.9 0.3 3.4 0.1 6.9 1.8 10.1 3.3 1 0.4 2.2 2.7 1.8 3.5-0.5 1.3-2.2 2.2-3.6 2.9-4.1 1.8-8.5 3.1-12.4 5.3-1.7 1-2.8 3.5-3.5 5.6-2.7 7-4.8 14.3-7.6 21.4-1.8 4.7 1.7 6.9 3.6 10.4-1 0.3-2.1 0.4-3.6 0.1-1.1-1.1-1.7-1.9-2.4-2.7 0-2.7 0-5.4 0.2-8.8 1.1-2.5 2-4.4 2.8-6.2 1.5-6.4 2.1-13.2 5-18.8 1.9-3.4 7.4-4.9 11.4-7.1 1.1-0.7 2.5-0.8 4.5-1.2 1.3-0.5 1.9-1.1 2.5-1.7q-1.3-0.6-2.5-1.1c-0.4 0-0.8 0-1.9-0.4-16-1.1-31.5-1.9-47-2.7-8.7 1.8-16.8-1.6-24.3-4.6-8-3.3-15.1-8.8-22.9-13.4z"/>
	<path fill-rule="evenodd" class="s13" d="m553 722.5c2.6-0.4 5.1-0.4 8 0.1 2.2 11.5 9.9 18.1 20.1 17.5 10.1-0.7 16.8-8.2 17.1-19 2.5-0.6 5.1-1.2 8.1-1.8 1.3 14.2-6.3 24.2-22.2 29.3 0 45.5 0 91.1 0 136.6 42 0 83.7 0 125.3 0 5.3-21.5 21-26 32.5-24 12.5 2 22.1 14.1 21.8 27.2-0.2 12.8-10.2 23.8-23 25.6-13.9 2-25.5-5.9-30.2-21-1.7 0-3.5 0-5.3 0q-60.9 0.5-121.9 1c-7.2 0.1-8-0.7-8-8q0-65.9 0-131.9c0-1.8 0-3.6 0-5.5-13.2-3.8-21.2-11.8-22.3-26.1zm197.9 153.2c-7.3-7.3-16.1-8.6-23.9-3.7-7.4 4.6-10.5 13.6-7.5 21.8 2.6 7.1 7.9 11.2 15.2 12 7.6 0.9 13.9-1.9 17.9-8.5 4.2-7.1 3.7-14.3-1.7-21.6z"/>
	<path fill-rule="evenodd" class="s14" d="m606.8 1005c8.8 0 9.1 0.4 9.1 8.8 0 31.5 0 63 0.1 94.5 0.1 4.4-1.4 6.8-5.3 9-23.6 13-47 26.3-70.6 39.3-2.9 1.7-4.2 3.3-4.2 6.9 0.2 15.9 0.1 31.9 0.1 47.9 13.2 3.9 21.3 11.9 22.1 25.8 0.8 14-9.7 26.1-23.4 27.7-13.7 1.6-26.7-7.5-29.6-20.6-3-14 4.8-28 18.4-31.8 3.5-1 4.3-2.3 4.3-5.7-0.2-15.7 0-31.3-0.2-47-0.1-4.3 1.5-6.6 5.1-8.6 23.8-13.1 47.4-26.4 71.1-39.6 2.3-1.2 3.9-2.4 3.8-5.6-0.1-29.8 0-59.6-0.1-89.4 0-0.8-0.1-1.6-0.3-3-1.9 0-3.7 0-5.5 0q-33 0-66 0c-1.1 0-2.3 0-3.4-0.1-2.9-0.1-5.6-0.8-5.5-4.4 0.1-3.5 2.6-4.1 5.6-4.1q29.7 0 59.5 0c4.8 0 9.6 0 14.9 0zm-83.5 216.4c-8.2 4.9-11.5 11.3-10.2 19.9 1 7 6.3 13 13.1 14.8 7.8 2 15.3-0.4 20-6.6 4.9-6.5 5.1-15.4 0.5-21.9-5.1-7.2-13-9.5-23.4-6.2z"/>
	<path fill-rule="evenodd" class="s15" d="m480.4 1036.6c-2 14-12.1 23.7-25.3 24.5-14 0.8-24-7.4-28.6-23.9-1.6 0-3.4 0-5.2 0q-41.5 0-83 0c-7.1 0-7.9-0.9-7.9-8.1q0-35 0-70c0-1.8 0-3.6 0-5.3-16.1-6.6-23.5-18.3-20.7-31.9 2.8-12.8 14.2-22.1 26.9-21.7 13.2 0.4 24 9.9 26.2 23.2 2.2 14-5.8 24.5-23.7 30.9 0 24.7 0 49.5 0 74.5 29.3 0 58.4 0 87.5 0 4.9-16.2 18.7-24 33.2-20.8 12.5 2.7 20.6 13.8 20.6 28.6zm-18.7-19.2c-9.7-3.4-17.9-1.3-23.2 5.9-4.8 6.6-4.7 15.8 0.5 22.3 5 6.4 11.7 8.4 19.5 6.5 7.5-2 12-7.2 13.3-14.6 1.4-8.5-1.8-15.2-10.1-20.1zm-108.8-82.3c3.3-7.7 2.3-14.8-3.4-20.8-5.1-5.4-11.7-6.8-18.8-4.8-7.8 2.3-13 9.4-13 17.5 0.1 8.4 5.5 15.8 13.2 17.9 8.8 2.3 16.4-0.9 22-9.8z"/>
	<path fill-rule="evenodd" class="s16" d="m629.4 998.7c-8.4-5.8-10.4-8.9-13.8-21.7-13.9 0-27.8 0-41.8 0-8.5 0-17-0.1-25.5 0.1-4.6 0.1-6.5-1.9-6.2-6.3 0-0.8 0-1.7 0-2.5q0-85.7 0-171.4 0-1.5 0-3c0-3.1 1.2-5.9 4.3-5.4 1.6 0.2 3.1 3.2 4 5.2 0.6 1.2 0.2 2.9 0.2 4.4q0 82 0 163.9c0 2 0 4 0 6.4 22.2 0 44.1 0 66.1 0 1.1-2.3 2.2-4.9 3.7-7.3 7.8-11.9 23.5-15.8 35.6-9 12.3 7 17.3 22.6 11.1 35-6.4 13.1-21.2 18.7-34.6 13-0.9-0.4-1.8-0.8-3.1-1.4zm30.7-29.9c-5.3-10.6-15.9-14.6-25.6-9.7-9.5 4.9-12.8 16.2-7.6 25.6 4.4 7.9 14 11.4 22.7 8.2 9.1-3.4 13.4-12.6 10.5-24.1z"/>
	<path fill-rule="evenodd" class="s16" d="m364.9 722.5c2.5-0.5 4.8-0.5 7.6-0.5 0.4 21.2 0.4 42.3 0.4 63.8 31.4 0 62.4 0 93.5 0 5.4-19 20.3-23.4 31.6-21.7 12.6 2 22.1 13.7 22.1 27.1-0.1 12.3-9.6 23.7-21.5 25.8-15.5 2.7-26.4-4.7-32.5-22.4-1.6 0-3.4 0-5.2 0q-44.2 0-88.4 0c-7.1-0.1-7.7-0.6-7.7-7.7 0-21.3 0-42.6 0.1-64.4zm142.2 55.9c-7.4-7-15.6-8.3-23.5-3.6-7.3 4.5-10.6 12.9-8.1 21.2 2.2 7.1 6.9 11.7 14.3 12.9 7.8 1.2 14.7-1.1 19-8.1 4.5-7.4 4.1-14.8-1.7-22.4z"/>
	<path fill-rule="evenodd" class="s14" d="m638.8 706.4c2.4-2.2 4.9-4 7.6-5.9 0.4 1.9 0.6 4.1 0.6 6.2 0 33.7 0 67.3 0 101.2 1.5 0.5 2.9 0.9 4.2 1.4 12.5 4.1 20.5 16.8 18.4 29.2-2.2 13.5-13.2 22.9-26.6 23.1-13.4 0.1-24.6-9.6-26.7-23-2.1-12.7 5.4-25.1 18.1-29.1 3.6-1.1 4.5-2.7 4.5-6.2-0.2-32.1-0.1-64.3-0.1-96.9zm9.4 110.6c-9.7-2.4-18.5 1.6-22.3 10.2-3.6 7.9-0.7 18 6.6 23 7.1 4.8 17.2 3.9 23.4-2.1 8.8-8.5 7.4-25.7-7.7-31.1z"/>
	<path class="s17" d="m1486.8 584.2c-3.5-5.1-3.7-10-0.4-14.7 2.8-4.1 8.1-6.1 12.7-4.4 2.6 1.1 5.3 3 6.8 5.3 4.3 6.5 8.1 13.3 11.8 20.2 3.5 6.4 1.5 13.4-4.4 16.8-5.3 3.1-12.2 1.1-15.9-4.9-3.6-5.9-7-12-10.6-18.3z"/>
	<path class="s9" d="m1539 555.4c15.5 0.4 31 1.2 46.7 2.3-1.3 0.7-2.8 1.2-4.4 1.2-9.9 0.1-19.8 0.4-29.7-0.1-4.2-0.2-8.3-2-12.6-3.4z"/>
	<path class="s9" d="m1743.5 593q-0.9 7.8-3 16c-0.1-4.1 0.1-8.3 0.6-12.5 0.1-1.2 1.3-2.3 2.4-3.5z"/>
	<path class="s9" d="m1598.4 606.9c-0.1-0.5 0.2-1.5 0.6-1.5 5.3 0.1 10.5 0.5 15.9 1.1-5.2 0.4-10.6 0.4-16.5 0.4z"/>
	<path class="s9" d="m1633.4 606.9c2.3-1.3 5.1-2.5 8.3-3.8-0.7 4.9-4.6 3.8-8.3 3.8z"/>
	<path class="s9" d="m1743.5 652q-1 4.4-3.1 9 1.1-4.4 3.1-9z"/>
	<path class="s9" d="m1740.1 627.3q1.9 3.1 3.8 7.4c-3.9-0.7-3.5-4.1-3.8-7.4z"/>
	<path class="s9" d="m1740.1 571.3q1.9 3.1 3.8 7.4c-3.9-0.7-3.4-4.1-3.8-7.4z"/>
	<path class="s9" d="m1649.9 559.6c-2.3 0.7-4.8 1-7.6 1.3 1.5-4.4 4.4-3.4 7.6-1.3z"/>
	<path class="s9" d="m1566.6 588c-0.4 1.8-1.3 3.7-2.3 5.8 0.5-1.8 1.2-3.8 2.3-5.8z"/>
	<path class="s9" d="m1739.6 672q-1.1 1.9-3.2 4 1.1-1.9 3.2-4z"/>
	<path class="s9" d="m1617.8 560.7c-1.1 0.2-2.4 0.1-3.8-0.3 1.2-0.2 2.3-0.1 3.8 0.3z"/>
	<path class="s9" d="m1563.8 603.2c0.9 0.6 1.5 1.4 2.2 2.5-0.8-0.6-1.7-1.5-2.2-2.5z"/>
	<path class="s9" d="m1587.9 558.4c0.8 0.1 1.6 0.4 2.5 0.8-0.6 0.6-1.2 1.2-2.1 1.7-0.4-0.7-0.3-1.4-0.4-2.5z"/>
	<path class="s9" d="m1663 561.6c-0.5 0.2-1.1 0-1.8-0.3 0.5-0.2 1.1-0.1 1.8 0.3z"/>
	<path class="s18" d="m597.7 721c0.2 10.9-6.5 18.4-16.6 19.1-10.2 0.6-17.9-6-19.7-17.4 12-0.8 23.9-1.3 36.3-1.7z"/>
	<path class="s19" d="m216.1 729.9c0 0-0.1-0.4-0.1-1-1-1.4-1.9-2.2-2.8-3.1 0-0.7-0.1-1.4-0.1-2.5 6.7-0.7 13.3-1 20.4-1.3 6.6 7.7 9.1 15.8 3.4 25.2-3.9-2.6-7.4-5.5-11.4-8.7-1.2-0.7-1.9-1.1-2.5-1.4-1.6-1.5-3.2-3-5-5-0.7-1.2-1.3-1.7-1.9-2.2z"/>
	<path class="s20" d="m1346.9 498c12.6 9.8 20.8 21.3 20.2 38.6-0.4 10.2-2.7 18.9-8.3 26.9-6.4 9.1-16.4 12.8-25.9 17.7-23.6 11.8-55.6-8.4-60.2-34-0.5-2.9-0.9-6-0.4-8.8 2.7-15.1 4.1-30.9 19.5-40.2 4.6-0.2 8.7-0.5 12.7-0.9 1.5-0.2 3.1-0.6 4.7-0.5 9.5 0.5 19 1.9 28.4 1.2 3.2-0.3 6.2-0.3 9.3 0z"/>
	<path class="s21" d="m1447.7 498.6c8.3-0.5 16.6-0.5 24.8-0.6 2.8-0.1 4.1 0.9 4.7 3.8 0.7 4 2.1 7.9 3.5 12-7.7 7.9-17.1 13.2-26.8 17.1-2.1-10.8-4.1-21.4-6.2-32.3z"/>
	<path class="s18" d="m383.5 1289c10 2.9 15.7 10.1 15.3 18.7-0.4 8.6-6.4 15.6-14.7 17.4-10.4 2.2-20.6-4.7-22.1-14.9-1.7-11.2 5.9-20.7 17.1-21.4 1.3-0.1 2.6 0.1 4.4 0.2z"/>
	<path class="s18" d="m414.9 882.3c-8.9 0.2-14.9-3.5-18-11.4-2.8-7-1.8-13.8 3.6-19.4 5.4-5.7 12.2-7.1 19.6-4.7 8.2 2.7 13.2 10.8 12.1 19.5-1 9-7.4 15-17.3 16z"/>
	<path class="s18" d="m751.2 875.9c5.1 7.1 5.6 14.3 1.4 21.4-4 6.6-10.3 9.4-17.9 8.5-7.3-0.8-12.6-4.9-15.2-12-3-8.2 0.1-17.2 7.5-21.8 7.8-4.9 16.6-3.6 24.2 3.9z"/>
	<path class="s18" d="m523.7 1221.3c10-3.2 17.9-0.9 23 6.3 4.6 6.5 4.4 15.4-0.5 21.9-4.7 6.2-12.2 8.6-20 6.6-6.8-1.8-12.1-7.8-13.1-14.8-1.3-8.6 2-15 10.6-20z"/>
	<path class="s18" d="m462 1017.7c8 4.6 11.2 11.3 9.8 19.8-1.3 7.4-5.8 12.6-13.3 14.6-7.8 1.9-14.5-0.1-19.5-6.5-5.2-6.5-5.3-15.7-0.5-22.3 5.3-7.2 13.5-9.3 23.5-5.6z"/>
	<path class="s18" d="m352.7 935.4c-5.4 8.6-13 11.8-21.8 9.5-7.7-2.1-13.1-9.5-13.2-17.9 0-8.1 5.2-15.2 13-17.5 7.1-2 13.7-0.6 18.8 4.8 5.7 6 6.7 13.1 3.2 21.1z"/>
	<path class="s18" d="m660.3 969.2c2.7 11.1-1.6 20.3-10.7 23.7-8.7 3.2-18.3-0.3-22.7-8.2-5.2-9.4-1.9-20.7 7.6-25.6 9.7-4.9 20.3-0.9 25.8 10.1z"/>
	<path class="s18" d="m507.4 778.7c5.5 7.3 5.9 14.7 1.4 22.1-4.3 7-11.2 9.3-19 8.1-7.4-1.2-12.1-5.8-14.3-12.9-2.5-8.3 0.8-16.7 8.1-21.2 7.9-4.7 16.1-3.4 23.8 3.9z"/>
	<path class="s18" d="m648.6 817.1c14.7 5.3 16.1 22.5 7.3 31-6.2 6-16.3 6.9-23.4 2.1-7.3-5-10.2-15.1-6.6-23 3.8-8.6 12.6-12.6 22.7-10.1z"/>
	<path class="s1" d="m213.2 726.2q1.4 0.7 2.8 2.5-1.5-0.8-2.8-2.5z"/>
	<path class="s1" d="m223 737.4q1 0.1 2.1 1.1-1-0.1-2.1-1.1z"/>
	<path class="s1" d="m216.1 730.2q0.9 0.3 1.8 1.6-1-0.3-1.8-1.6z"/>
</svg>